<svg xmlns="http://www.w3.org/2000/svg" xmlns:xlink="http://www.w3.org/1999/xlink" aria-hidden="true" role="img" class="iconify iconify--logos" width="31.88" height="32" preserveAspectRatio="xMidYMid meet" viewBox="0 0 256 257"><defs><linearGradient id="IconifyId1813088fe1fbc01fb466" x1="-.828%" x2="57.636%" y1="7.652%" y2="78.411%" gradientUnits="objectBoundingBox"><stop offset="0%" stop-color="#41D1FF"></stop><stop offset="100%" stop-color="#BD34FE"></stop></linearGradient><linearGradient id="IconifyId1813088fe1fbc01fb467" x1="43.376%" x2="50.316%" y1="2.242%" y2="89.03%" gradientUnits="objectBoundingBox"><stop offset="0%" stop-color="#FFBD4F"></stop><stop offset="100%" stop-color="#FF980E"></stop></linearGradient></defs><path fill="url(#IconifyId1813088fe1fbc01fb466)" d="M255.153 37.938L134.897 252.976c-2.483 4.44-8.862 4.466-11.382.048L.875 37.958c-2.746-4.814 1.371-10.646 6.827-9.67l120.385 21.517a6.537 6.537 0 0 0 2.322-.004l117.867-21.483c5.438-.991 9.574 4.796 6.877 9.62Z"></path><path fill="url(#IconifyId1813088fe1fbc01fb467)" d="M185.432.063L96.44 17.501a3.268 3.268 0 0 0-2.634 3.014l-5.474 92.456a3.268 3.268 0 0 0 3.997 3.378l24.777-5.718c2.318-.535 4.413 1.422 4.413 3.778v14.815c0 1.962-1.532 3.532-3.494 3.532h-11.442a3.531 3.531 0 0 1-3.53-3.53v-21.913c0-1.873-1.946-3.266-3.77-2.877L66.033 131.6a3.268 3.268 0 0 0-2.394 3.92l14.24 55.318c.453 1.758 2.03 2.975 3.848 2.975h.005c.006 0 .013 0 .02 0h55.964a3.268 3.268 0 0 0 3.267-3.267V77.622c0-1.962 1.532-3.532 3.494-3.532h11.442a3.531 3.531 0 0 1 3.53 3.53v90.644a3.268 3.268 0 0 0 5.354 2.509l23.176-20.338a3.268 3.268 0 0 0 .996-2.364V3.268A3.268 3.268 0 0 0 185.432.063Z"></path></svg>
